<svg xmlns="http://www.w3.org/2000/svg" xmlns:xlink="http://www.w3.org/1999/xlink" width="64" height="64" viewBox="0 0 64 64"><svg x="2" y="15" width="60" height="34" viewBox="268 366 500 280"><path fill="#686CE9" d="M588.727 457.253C603.608 423.655 621.851 397.008 657.865 383.037C678.278 375.119 698.07 376.238 719.615 376.15L759.193 376.021L670.316 537.089L647.967 577.612C634.591 601.816 625.613 620.824 596.739 629.423C578.608 634.802 559.079 632.698 542.51 623.581C530.279 616.836 524.141 609.988 517.288 598.029C518.354 596.002 525.161 582.645 526.192 581.823C529.552 574.807 533.632 567.425 537.298 560.509C540.805 568.829 543.154 574.649 548.549 582.087C558.739 594.37 571.334 600.688 587.223 595.009C593.119 592.968 598.286 589.24 602.082 584.288C606.478 578.533 613.086 565.79 616.798 559.143L643.524 510.982L678.344 448.168C684.409 437.214 692.973 422.565 698.114 411.483C692.205 411.474 686.315 412.165 680.568 413.542C661.496 418.017 645.003 429.928 634.759 446.625C621.018 469.288 612.975 507.256 619.218 533.267C611.923 546.982 604.478 560.616 596.883 574.167C588.848 561.148 581.242 539.771 576.962 524.952C573.692 513.631 570.47 496.367 564.534 486.372C563.016 492.611 553.447 512.297 549.603 517.046L549.226 517.033L548.859 516.54C549.824 515.096 549.952 514.782 550.636 513.255C547.838 505.316 537.658 483.603 530.996 479.974C529.803 480.386 527.872 484.384 526.948 485.913L526.215 485.822L525.729 486.515C522.117 491.755 515.939 504.142 512.508 510.3L483.551 562.113C476.297 575.121 469.748 592.049 453.494 595.424C451.605 595.823 449.672 595.98 447.743 595.893C431.678 599.544 417.218 586.224 410.736 572.993C408.75 568.938 406.5 563.768 404.222 560.002L403.756 559.242C403.932 556.867 404.11 556.222 404.786 553.924C406.431 543.011 425.904 511.25 432.332 499.546L451.593 465.053C455.794 457.501 459.908 449.973 464.288 442.519C475.314 423.755 494.422 409.564 516.676 408.367C520.533 407.375 528.135 408.004 532.145 408.533C560.438 412.26 577.57 432.77 588.727 457.253Z"/><path fill="white" d="M447.743 595.893C430.414 592.749 429.813 579.666 436.664 566.473C440.677 558.745 444.906 551.214 449.093 543.585C457.822 527.627 466.664 511.731 475.617 495.898C483.576 481.708 491.368 465.377 500.858 452.46C507.676 443.178 523.499 441.123 533.667 446.115C546.665 458.796 531.284 473.576 526.215 485.822L525.729 486.515C522.117 491.755 515.939 504.142 512.508 510.3L483.551 562.113C476.297 575.121 469.748 592.049 453.494 595.424C451.605 595.823 449.672 595.98 447.743 595.893Z"/><defs><linearGradient id="gradient_0" gradientUnits="userSpaceOnUse" x1="499.742" y1="527.14471" x2="477.5817" y2="497.11639"><stop offset="0" stop-color="#5C63DE"/><stop offset="1" stop-color="#4194E2"/></linearGradient></defs><path fill="url(#gradient_0)" d="M494.136 483.284C496.646 485.806 503.074 500.111 504.65 503.941C497.828 516.601 490.474 528.984 483.602 541.691C481.35 540.213 474.907 524.912 473.476 521.726C478.684 510.073 488.054 495.415 494.136 483.284Z"/><defs><linearGradient id="gradient_1" gradientUnits="userSpaceOnUse" x1="556.89026" y1="471.27094" x2="533.88678" y2="485.4079"><stop offset="0" stop-color="#5C3AD0"/><stop offset="1" stop-color="#5971E6"/></linearGradient></defs><path fill="url(#gradient_1)" d="M533.667 446.115C548.122 446.214 558.747 476.126 564.534 486.372C563.016 492.611 553.447 512.297 549.603 517.046L549.226 517.033L548.859 516.54C549.824 515.096 549.952 514.782 550.636 513.255C547.838 505.316 537.658 483.603 530.996 479.974C529.803 480.386 527.872 484.384 526.948 485.913L526.215 485.822C531.284 473.576 546.665 458.796 533.667 446.115Z"/><path fill="#36ACE7" d="M404.786 553.924C406.431 543.011 425.904 511.25 432.332 499.546L451.593 465.053C455.794 457.501 459.908 449.973 464.288 442.519C475.314 423.755 494.422 409.564 516.676 408.367C514.001 409.758 511.218 410.083 508.266 410.623C487.334 414.449 471.275 430.842 461.612 449.019C455.765 460.019 448.887 470.963 443.482 482.189C442.334 484.573 442.179 486.775 439.804 488.773C438.712 489.836 436.156 495.321 436.382 496.796C438.36 496.193 441.508 493.095 443.703 491.593C441.844 501.718 458.183 530.741 435.788 534.121C432.09 533.205 426.611 530.041 424.21 526.968C422.869 525.251 424.462 523.364 422.696 520.934C418.591 521.937 407.027 549.308 405.433 554.05L404.786 553.924Z"/><path fill="#5D33B8" d="M537.298 560.509C540.805 568.829 543.154 574.649 548.549 582.087C546.9 583.165 545.705 584.325 544.025 583.994C543.543 582.42 543.756 582.081 544.045 580.455L544.639 580.101C545.324 581.181 544.904 581.474 544.544 583.201L545.169 583.25C546.862 582.221 546.43 582.922 547.021 581.409C543.736 578.52 541.09 569.756 538.181 565.882L536.584 566.015C531.772 568.913 530.343 580.278 526.192 581.823C529.552 574.807 533.632 567.425 537.298 560.509Z"/><defs><linearGradient id="gradient_2" gradientUnits="userSpaceOnUse" x1="550.34772" y1="509.38333" x2="285.65845" y2="522.31537"><stop offset="0" stop-color="#5C81E3"/><stop offset="1" stop-color="#07E0F5"/></linearGradient></defs><path fill="url(#gradient_2)" d="M278.254 405.451C292.408 404.996 306.828 405.106 321.002 405.18C332.615 405.24 345.589 404.742 357.041 406.223C394.72 411.094 422.182 433.821 438.562 466.995C432.02 479.835 423.925 492.736 417.684 505.388C400.881 468.249 384.169 442.259 339.106 441.036C352.352 467.289 369.25 496.281 383.497 522.442L396.616 546.741C398.077 549.453 402.063 557.189 403.756 559.242L404.222 560.002C406.5 563.768 408.75 568.938 410.736 572.993C417.218 586.224 431.678 599.544 447.743 595.893C449.672 595.98 451.605 595.823 453.494 595.424C469.748 592.049 476.297 575.121 483.551 562.113L512.508 510.3C515.939 504.142 522.117 491.755 525.729 486.515L526.215 485.822L526.948 485.913C527.872 484.384 529.803 480.386 530.996 479.974C537.658 483.603 547.838 505.316 550.636 513.255C549.952 514.782 549.824 515.096 548.859 516.54L549.226 517.033L549.603 517.046C546.959 522.946 540.929 534.154 537.411 539.523C517.754 569.516 506.731 613.306 470.448 627.291C452.288 634.231 432.101 633.586 414.421 625.499C391.927 615.292 384.749 599.471 373.481 579.012L352.481 540.643C328.07 495.927 303.227 449.637 278.254 405.451Z"/></svg></svg>